<svg xmlns="http://www.w3.org/2000/svg" version="1.1" xmlns:xlink="http://www.w3.org/1999/xlink" xmlns:svgjs="http://svgjs.com/svgjs" width="1440" height="560" preserveAspectRatio="none" viewBox="0 0 1440 560"><g mask="url(&quot;#SvgjsMask1062&quot;)" fill="none"><rect width="1440" height="560" x="0" y="0" fill="url(#SvgjsLinearGradient1063)"></rect><path d="M1440 0L1171.71 0L1440 20.32z" fill="rgba(255, 255, 255, .1)"></path><path d="M1171.71 0L1440 20.32L1440 50.1L681.8800000000001 0z" fill="rgba(255, 255, 255, .075)"></path><path d="M681.88 0L1440 50.1L1440 332.90000000000003L295.9 0z" fill="rgba(255, 255, 255, .05)"></path><path d="M295.9000000000001 0L1440 332.90000000000003L1440 363.75000000000006L188.0500000000001 0z" fill="rgba(255, 255, 255, .025)"></path><path d="M0 560L511.7 560L0 507.56z" fill="rgba(0, 0, 0, .1)"></path><path d="M0 507.56L511.7 560L536.27 560L0 434.19z" fill="rgba(0, 0, 0, .075)"></path><path d="M0 434.19L536.27 560L593.4 560L0 192.62z" fill="rgba(0, 0, 0, .05)"></path><path d="M0 192.62L593.4 560L955.9 560L0 184.75z" fill="rgba(0, 0, 0, .025)"></path></g><defs><mask id="SvgjsMask1062"><rect width="1440" height="560" fill="#ffffff"></rect></mask><linearGradient x1="84.72%" y1="139.29%" x2="15.28%" y2="-39.29%" gradientUnits="userSpaceOnUse" id="SvgjsLinearGradient1063"><stop stop-color="rgba(255, 255, 255, 1)" offset="0.08"></stop><stop stop-color="rgba(255, 255, 255, 1)" offset="0.14"></stop></linearGradient></defs></svg>